PathFileType	4	(X/Y/Z)	/Users/itak/Documents/Research/Walk-IL/dataset/trc/00192_00008.trc
DataRate	CameraRate	NumFrames	NumMarkers	Units	OrigDataRate	OrigDataStartFrame	OrigNumFrames
100.000000	100.000000	4	53	mm	100.000000	99	794
Frame#	Time	RPSI			LPSI			L3			STRN			T10			C7			CLAV			RBAK			LBAK			LSHO			LUPA			LAEL			LAOL			LWTS			LWPS			LFRA			LIFD			LHPS			LHTS			RSHO			RUPA			RAEL			RAOL			RWTS			RWPS			RFRA			RIFD			RHTS			RHPS			RBHD			LFHD			RFHD			LBHD			LHIP			RHIP			RASI			LASI			LKNE			LTHI			LANK			LTIP			LTOE			LMT1			LMT5			LHEE			RKNE			RTHI			RANK			RTIP			RTOE			RMT1			RMT5			RHEE			
		X1	Y1	Z1	X2	Y2	Z2	X3	Y3	Z3	X4	Y4	Z4	X5	Y5	Z5	X6	Y6	Z6	X7	Y7	Z7	X8	Y8	Z8	X9	Y9	Z9	X10	Y10	Z10	X11	Y11	Z11	X12	Y12	Z12	X13	Y13	Z13	X14	Y14	Z14	X15	Y15	Z15	X16	Y16	Z16	X17	Y17	Z17	X18	Y18	Z18	X19	Y19	Z19	X20	Y20	Z20	X21	Y21	Z21	X22	Y22	Z22	X23	Y23	Z23	X24	Y24	Z24	X25	Y25	Z25	X26	Y26	Z26	X27	Y27	Z27	X28	Y28	Z28	X29	Y29	Z29	X30	Y30	Z30	X31	Y31	Z31	X32	Y32	Z32	X33	Y33	Z33	X34	Y34	Z34	X35	Y35	Z35	X36	Y36	Z36	X37	Y37	Z37	X38	Y38	Z38	X39	Y39	Z39	X40	Y40	Z40	X41	Y41	Z41	X42	Y42	Z42	X43	Y43	Z43	X44	Y44	Z44	X45	Y45	Z45	X46	Y46	Z46	X47	Y47	Z47	X48	Y48	Z48	X49	Y49	Z49	X50	Y50	Z50	X51	Y51	Z51	X52	Y52	Z52	X53	Y53	Z53	

100	0.99	178.40625	1041.37109375	916.8253784179688	153.7617645263672	1044.7783203125	1036.79345703125	161.6659698486328	1083.455810546875	975.207275390625	-111.9046783447266	1264.892700195312	926.1751098632812	176.1824493408203	1248.0771484375	991.1842651367188	80.64218902587891	1507.352905273438	982.8974609375	-100.1641006469727	1382.226440429688	936.736572265625	190.252685546875	1340.633422851562	897.5794067382812	67.58574676513672	1485.475952148438	1081.9521484375	-22.42728042602539	1465.754638671875	1141.191040039062	9.057351112365723	1341.673583984375	1228.385131835938	18.03750038146973	1126.1142578125	1254.438232421875	83.43052673339844	1115.52294921875	1196.565673828125	-40.93376541137695	875.83447265625	1220.993896484375	28.78852272033691	874.79833984375	1280.365234375	18.14140129089355	1016.899047851562	1274.375	-6.320065021514893	719.5928955078125	1196.287475585938	22.87333106994629	802.53369140625	1278.8408203125	-43.35076904296875	797.8642578125	1245.132690429688	65.87368774414062	1476.725463867188	793.6978759765625	110.0014572143555	1412.679931640625	735.4826049804688	170.6668548583984	1127.318115234375	695.7012939453125	142.9488067626953	1119.27197265625	789.0979614257812	25.17046546936035	905.8709106445312	662.5126342773438	110.0763854980469	883.4345092773438	645.3521728515625	153.2018432617188	1053.804443359375	669.6741333007812	-10.65889072418213	719.9057006835938	680.3414916992188	-2.335134506225586	813.5230102539062	645.6055297851562	77.76019287109375	801.5632934570312	639.1187133789062	19.98892211914062	1658.158203125	887.921630859375	-185.3794097900391	1682.272583007812	956.2107543945312	-145.1970825195312	1674.184692382812	832.052001953125	-17.93093490600586	1675.158813476562	1018.646423339844	39.05786514282227	979.8508911132812	1137.793701171875	51.06583404541016	998.4891967773438	766.1119384765625	-38.56390762329102	1020.425903320312	808.0963134765625	-79.57952880859375	1007.987121582031	1065.205200195312	90.5714111328125	490.236328125	1098.397338867188	63.13715362548828	631.232177734375	1122.066040039062	251.0375823974609	43.60263824462891	1107.029052734375	166.8828430175781	273.61572265625	1114.923583984375	28.9910888671875	44.20310211181641	1096.038818359375	75.97976684570312	45.38865280151367	1044.901000976562	146.69189453125	34.74238586425781	1156.180419921875	298.1619873046875	43.77951431274414	1034.603881835938	-150.6709594726562	541.3195190429688	734.4916381835938	-58.30354309082031	798.951416015625	732.5858154296875	-167.0426177978516	39.30907821655273	735.2296752929688	-189.1319885253906	421.4814453125	733.7332763671875	-369.9966735839844	112.4031295776367	702.9246826171875	-338.6175537109375	92.7825927734375	760.175537109375	-259.9656677246094	62.8845100402832	671.7964477539062	-139.8279724121094	31.94626045227051	814.2484741210938	
101	1	173.10693359375	1039.17578125	915.4833374023438	148.3574066162109	1042.763549804688	1035.378662109375	156.39599609375	1081.404907226562	973.7212524414062	-117.034294128418	1262.887573242188	923.8900146484375	170.9760437011719	1246.263916015625	989.55029296875	75.37937164306641	1505.491088867188	980.6740112304688	-105.3092651367188	1380.254760742188	934.3096313476562	185.2350463867188	1338.630004882812	895.9270629882812	62.0903434753418	1483.783813476562	1079.747436523438	-28.02449607849121	1464.139892578125	1138.802978515625	3.182378768920898	1340.227905273438	1226.29345703125	11.80210399627686	1124.701538085938	1252.89990234375	77.50948333740234	1113.959838867188	1195.373779296875	-47.15420532226562	874.4122314453125	1219.458740234375	22.18979263305664	873.4313354492188	1279.287231445312	11.62347221374512	1015.497375488281	1273.037963867188	-12.56612586975098	718.0888671875	1195.17333984375	16.2019100189209	801.1558837890625	1277.84765625	-49.85662841796875	796.4266357421875	1243.681762695312	61.06315231323242	1474.49609375	791.5030517578125	105.3935470581055	1410.380859375	733.5462036132812	166.6570281982422	1125.148681640625	694.3958740234375	138.5076904296875	1117.102783203125	787.6826171875	22.15401649475098	903.1800537109375	660.6317749023438	107.2186431884766	881.0313110351562	644.0078735351562	149.5732727050781	1051.5927734375	668.357421875	-13.00607395172119	717.0659790039062	678.5151977539062	-4.910708904266357	810.6677856445312	643.7156372070312	75.31754302978516	799.0406494140625	637.6950073242188	15.05709075927734	1656.010620117188	885.302490234375	-190.6046752929688	1680.360961914062	952.5657958984375	-149.8155517578125	1671.993286132812	828.6137084960938	-23.4624080657959	1673.287475585938	1015.818664550781	33.18024826049805	978.4768676757812	1136.227661132812	46.09285354614258	996.2323608398438	764.6273803710938	-43.89943695068359	1018.527709960938	806.0856323242188	-85.19004821777344	1006.564025878906	1063.262451171875	87.52030944824219	489.4820861816406	1097.381713867188	58.98715209960938	630.3475341796875	1120.809204101562	250.9595336914062	43.76039505004883	1106.918212890625	165.4201507568359	273.4878234863281	1114.500610351562	28.8950138092041	44.10085296630859	1096.112060546875	75.92515563964844	45.32780075073242	1044.861694335938	146.6959533691406	34.75344467163086	1156.157836914062	298.0932312011719	43.8453369140625	1034.468139648438	-155.3183288574219	540.0784912109375	731.6263427734375	-62.78549194335938	797.0842895507812	730.4810180664062	-188.0235595703125	39.10335540771484	729.221923828125	-196.9646911621094	421.7738952636719	730.11865234375	-389.3075561523438	116.4372329711914	696.5732421875	-358.4098510742188	96.20973205566406	753.810791015625	-280.41015625	64.61907196044922	665.7296752929688	-161.2241516113281	31.07748222351074	808.092529296875	
102	1.01	167.6200408935547	1036.947875976562	914.0017700195312	142.7733154296875	1040.730346679688	1033.838134765625	150.9329986572266	1079.307861328125	972.1009521484375	-122.2890930175781	1260.899780273438	921.4539184570312	165.6425018310547	1244.355590820312	987.731689453125	70.08644866943359	1503.573608398438	978.2554321289062	-110.543571472168	1378.296997070312	931.73974609375	180.1138458251953	1336.525390625	894.0862426757812	56.58506393432617	1482.039916992188	1077.354370117188	-33.62788391113281	1462.495239257812	1136.254150390625	-2.696577072143555	1338.722045898438	1224.0048828125	5.484424114227295	1123.230712890625	1251.12744140625	71.43077087402344	1112.296142578125	1193.882080078125	-53.62814331054688	872.962646484375	1217.799072265625	15.41695213317871	872.00341796875	1277.974853515625	5.003262519836426	1014.048034667969	1271.474731445312	-19.16463851928711	716.547607421875	1193.917114257812	9.327082633972168	799.7290649414062	1276.635498046875	-56.60675811767578	794.9891967773438	1242.113159179688	56.17866134643555	1472.191528320312	789.1245727539062	100.6870956420898	1407.998901367188	731.4244995117188	162.5139617919922	1122.899658203125	692.9151000976562	133.9362487792969	1114.845092773438	786.1002197265625	19.10762786865234	900.3707885742188	658.5894165039062	104.3385848999023	878.5441284179688	642.4879760742188	145.8314514160156	1049.304321289062	666.86279296875	-15.27271747589111	714.0765991210938	676.5529174804688	-7.470781803131104	807.6635131835938	641.6868896484375	72.89610290527344	796.4190063476562	636.1077880859375	10.05567264556885	1653.8681640625	882.5169067382812	-195.8840484619141	1678.403198242188	948.7817993164062	-154.5093078613281	1669.771362304688	825.0311279296875	-29.04741859436035	1671.404541015625	1012.825561523438	27.13968849182129	977.0857543945312	1134.55712890625	40.94449996948242	993.8724975585938	763.0055541992188	-49.39394760131836	1016.499816894531	803.9562377929688	-90.92700958251953	1005.093872070312	1061.193237304688	84.16566467285156	488.6625671386719	1096.362670898438	54.62170791625977	629.4072875976562	1119.539672851562	250.8648529052734	43.93471527099609	1106.81396484375	163.8164367675781	273.3332214355469	1114.124145507812	28.8064022064209	44.00858688354492	1096.178833007812	75.87189483642578	45.26850509643555	1044.82861328125	146.6976776123047	34.76496505737305	1156.135009765625	298.0082397460938	43.90186309814453	1034.319213867188	-159.9879913330078	538.6981811523438	728.7503051757812	-67.33482360839844	795.082275390625	728.2839965820312	-208.3389587402344	39.206298828125	723.24462890625	-204.6770324707031	422.0289916992188	726.5086669921875	-407.8613586425781	120.6235275268555	690.0208740234375	-377.5146789550781	99.82079315185547	747.2840576171875	-300.0959777832031	66.57765197753906	659.5408935546875	-182.0466613769531	30.58060073852539	802.0133056640625	
103	1.02	161.9487609863281	1034.70849609375	912.3711547851562	137.0167236328125	1038.704345703125	1032.164794921875	145.2836151123047	1077.189086914062	970.3399047851562	-127.6759262084961	1258.941650390625	918.8554077148438	160.1772918701172	1242.365600585938	985.7261962890625	64.75465393066406	1501.611694335938	975.6363525390625	-115.8699645996094	1376.370239257812	929.0233154296875	174.8792114257812	1334.33251953125	892.0532836914062	51.05753326416016	1480.257080078125	1074.76806640625	-39.25462341308594	1460.832763671875	1133.536987304688	-8.594982147216797	1337.167114257812	1221.51318359375	-0.9198778867721558	1121.717651367188	1249.115600585938	65.19475555419922	1110.552490234375	1192.090209960938	-60.35111618041992	871.5005493164062	1216.0048828125	8.479185104370117	870.5333251953125	1276.420776367188	-1.717020750045776	1012.566528320312	1269.678344726562	-26.11701583862305	714.9735107421875	1192.5126953125	2.257203817367554	798.2688598632812	1275.197631835938	-63.58689498901367	793.5703735351562	1240.4287109375	51.21785736083984	1469.824951171875	786.5557861328125	95.88468170166016	1405.547241210938	729.1152954101562	158.2460632324219	1120.581909179688	691.2642822265625	129.2269439697266	1112.508666992188	784.3525390625	16.01449394226074	897.4654541015625	656.383544921875	101.4285125732422	875.9879760742188	640.7969360351562	141.9766235351562	1046.951416015625	665.1932983398438	-17.48604393005371	710.9617919921875	674.453369140625	-10.02452754974365	804.5325317382812	639.5120849609375	70.48092651367188	793.715087890625	634.3577270507812	4.985921859741211	1651.745361328125	879.5591430664062	-201.2142639160156	1676.420776367188	944.86083984375	-159.2806854248047	1667.541381835938	821.3045654296875	-34.6786994934082	1669.52587890625	1009.661804199219	20.96414947509766	975.6829833984375	1132.7802734375	35.61565017700195	991.4376831054688	761.241943359375	-55.0344123840332	1014.361389160156	801.7224731445312	-96.78196716308594	1003.583312988281	1059.00244140625	80.51454925537109	487.7779846191406	1095.33984375	50.03597259521484	628.4080200195312	1118.246459960938	250.7514801025391	44.13202667236328	1106.717895507812	162.0779266357422	273.1641540527344	1113.799560546875	28.7286262512207	43.92860412597656	1096.2373046875	75.81877136230469	45.20968627929688	1044.806274414062	146.6970367431641	34.77513122558594	1156.114624023438	297.9051818847656	43.9600944519043	1034.155151367188	-164.7573852539062	537.208251953125	725.8753662109375	-71.98100280761719	792.9740600585938	725.99169921875	-227.8907165527344	39.54390335083008	717.3223266601562	-212.2982940673828	422.23583984375	722.9148559570312	-425.5398864746094	124.9668121337891	683.2454833984375	-395.837646484375	103.6045837402344	740.5770874023438	-318.8934326171875	68.72670745849609	653.2227783203125	-202.2169494628906	30.3735179901123	796.0559692382812	
